<?xml version="1.0" encoding="UTF-8" standalone="no"?>
<!DOCTYPE svg PUBLIC "-//W3C//DTD SVG 1.1//EN"
 "http://www.w3.org/Graphics/SVG/1.1/DTD/svg11.dtd">
<!-- Generated by graphviz version 12.2.1 (20241206.2353)
 -->
<!-- Pages: 1 -->
<svg width="844pt" height="935pt"
 viewBox="0.00 0.00 844.38 934.75" xmlns="http://www.w3.org/2000/svg" xmlns:xlink="http://www.w3.org/1999/xlink">
<g id="graph0" class="graph" transform="scale(1 1) rotate(0) translate(4 930.75)">
<polygon fill="white" stroke="none" points="-4,4 -4,-930.75 840.38,-930.75 840.38,4 -4,4"/>
<g id="clust2" class="cluster">
<title>cluster_ExprGraph</title>
<polygon fill="lightgray" stroke="lightgray" points="217.88,-68.75 217.88,-918.75 377.88,-918.75 377.88,-68.75 217.88,-68.75"/>
<text text-anchor="middle" x="297.88" y="-901.45" font-family="Times,serif" font-size="14.00">ExprGraph</text>
</g>
<g id="clust3" class="cluster">
<title>cluster_Rectify7</title>
<polygon fill="coral" stroke="coral" points="225.88,-559.25 225.88,-658.5 355.88,-658.5 355.88,-559.25 225.88,-559.25"/>
<text text-anchor="middle" x="290.88" y="-641.2" font-family="Times,serif" font-size="14.00">Rectify</text>
</g>
<g id="clust4" class="cluster">
<title>cluster_Rectify6</title>
<polygon fill="coral" stroke="coral" points="225.88,-222.25 225.88,-321.5 357.88,-321.5 357.88,-222.25 225.88,-222.25"/>
<text text-anchor="middle" x="291.88" y="-304.2" font-family="Times,serif" font-size="14.00">Rectify</text>
</g>
<!-- Node_0xc00026d500 -->
<g id="0xc00026d500" class="node">
<title>Node_0xc00026d500</title>
<path fill="white" stroke="black" d="M245.62,-567.75C245.62,-567.75 336.12,-567.75 336.12,-567.75 342.12,-567.75 348.12,-573.75 348.12,-579.75 348.12,-579.75 348.12,-613.5 348.12,-613.5 348.12,-619.5 342.12,-625.5 336.12,-625.5 336.12,-625.5 245.62,-625.5 245.62,-625.5 239.62,-625.5 233.62,-619.5 233.62,-613.5 233.62,-613.5 233.62,-579.75 233.62,-579.75 233.62,-573.75 239.62,-567.75 245.62,-567.75"/>
<text text-anchor="middle" x="275.38" y="-612" font-family="Times,serif" font-size="10.00">&gt;= true(%b, %5)</text>
<polyline fill="none" stroke="black" points="317.12,-606.25 317.12,-625.5"/>
<text text-anchor="middle" x="332.62" y="-612" font-family="Times,serif" font-size="10.00">0xc</text>
<polyline fill="none" stroke="black" points="233.62,-606.25 348.12,-606.25"/>
<text text-anchor="middle" x="257.5" y="-592.75" font-family="Times,serif" font-size="10.00">Op</text>
<polyline fill="none" stroke="black" points="281.38,-587 281.38,-606.25"/>
<text text-anchor="middle" x="314.38" y="-592.75" font-family="Times,serif" font-size="10.00">&gt;= true</text>
<polyline fill="none" stroke="black" points="233.62,-587 348.12,-587"/>
<text text-anchor="middle" x="261.5" y="-573.5" font-family="Times,serif" font-size="10.00">Shape</text>
<polyline fill="none" stroke="black" points="289.38,-567.75 289.38,-587"/>
<text text-anchor="middle" x="318.5" y="-573.5" font-family="Times,serif" font-size="10.00">(1, 32)</text>
</g>
<!-- Node_0xc00026d420 -->
<g id="0xc00026d420" class="node">
<title>Node_0xc00026d420</title>
<path fill="white" stroke="black" d="M270.12,-491C270.12,-491 357.62,-491 357.62,-491 363.62,-491 369.62,-497 369.62,-503 369.62,-503 369.62,-536.75 369.62,-536.75 369.62,-542.75 363.62,-548.75 357.62,-548.75 357.62,-548.75 270.12,-548.75 270.12,-548.75 264.12,-548.75 258.12,-542.75 258.12,-536.75 258.12,-536.75 258.12,-503 258.12,-503 258.12,-497 264.12,-491 270.12,-491"/>
<text text-anchor="middle" x="298" y="-535.25" font-family="Times,serif" font-size="10.00">+ false(%a, %9)</text>
<polyline fill="none" stroke="black" points="337.88,-529.5 337.88,-548.75"/>
<text text-anchor="middle" x="353.75" y="-535.25" font-family="Times,serif" font-size="10.00">0xb</text>
<polyline fill="none" stroke="black" points="258.12,-529.5 369.62,-529.5"/>
<text text-anchor="middle" x="282" y="-516" font-family="Times,serif" font-size="10.00">Op</text>
<polyline fill="none" stroke="black" points="305.88,-510.25 305.88,-529.5"/>
<text text-anchor="middle" x="337.38" y="-516" font-family="Times,serif" font-size="10.00">+ false</text>
<polyline fill="none" stroke="black" points="258.12,-510.25 369.62,-510.25"/>
<text text-anchor="middle" x="285.5" y="-496.75" font-family="Times,serif" font-size="10.00">Shape</text>
<polyline fill="none" stroke="black" points="312.88,-491 312.88,-510.25"/>
<text text-anchor="middle" x="341" y="-496.75" font-family="Times,serif" font-size="10.00">(1, 32)</text>
</g>
<!-- Node_0xc00026d500&#45;&gt;Node_0xc00026d420 -->
<g id="edge14" class="edge">
<title>Node_0xc00026d500&#45;&gt;Node_0xc00026d420</title>
<path fill="none" stroke="black" d="M299.57,-567.37C300.31,-564.95 301.08,-562.47 301.84,-559.99"/>
<polygon fill="black" stroke="black" points="305.13,-561.21 304.72,-550.62 298.44,-559.15 305.13,-561.21"/>
</g>
<!-- Node_0xc00026cfc0 -->
<g id="0xc00026cfc0" class="node">
<title>Node_0xc00026cfc0</title>
<path fill="pink" stroke="black" d="M12,-0.5C12,-0.5 75.75,-0.5 75.75,-0.5 81.75,-0.5 87.75,-6.5 87.75,-12.5 87.75,-12.5 87.75,-46.25 87.75,-46.25 87.75,-52.25 81.75,-58.25 75.75,-58.25 75.75,-58.25 12,-58.25 12,-58.25 6,-58.25 0,-52.25 0,-46.25 0,-46.25 0,-12.5 0,-12.5 0,-6.5 6,-0.5 12,-0.5"/>
<text text-anchor="middle" x="19.12" y="-44.75" font-family="Times,serif" font-size="10.00">0</text>
<polyline fill="none" stroke="black" points="38.25,-39 38.25,-58.25"/>
<text text-anchor="middle" x="62.62" y="-44.75" font-family="Times,serif" font-size="10.00">0x5</text>
<polyline fill="none" stroke="black" points="0,-39 87.75,-39"/>
<text text-anchor="middle" x="14.38" y="-25.5" font-family="Times,serif" font-size="10.00">Op</text>
<polyline fill="none" stroke="black" points="28.75,-19.75 28.75,-39"/>
<text text-anchor="middle" x="47.62" y="-25.5" font-family="Times,serif" font-size="10.00">const</text>
<polyline fill="none" stroke="black" points="66.5,-19.75 66.5,-39"/>
<text text-anchor="middle" x="77.12" y="-25.5" font-family="Times,serif" font-size="10.00">0</text>
<polyline fill="none" stroke="black" points="0,-19.75 87.75,-19.75"/>
<text text-anchor="middle" x="26.38" y="-6.25" font-family="Times,serif" font-size="10.00">Shape</text>
<polyline fill="none" stroke="black" points="52.75,-0.5 52.75,-19.75"/>
<text text-anchor="middle" x="70.25" y="-6.25" font-family="Times,serif" font-size="10.00">()</text>
</g>
<!-- Node_0xc00026d500&#45;&gt;Node_0xc00026cfc0 -->
<g id="edge13" class="edge">
<title>Node_0xc00026d500&#45;&gt;Node_0xc00026cfc0</title>
<path fill="none" stroke="black" d="M233.31,-582.26C168.73,-563.45 72.88,-522.36 72.88,-444.12 72.88,-444.12 72.88,-444.12 72.88,-181.88 72.88,-143.17 63.63,-99.88 55.58,-69.51"/>
<polygon fill="black" stroke="black" points="58.99,-68.73 52.98,-60.01 52.24,-70.58 58.99,-68.73"/>
</g>
<!-- Node_0xc00026cee0 -->
<g id="0xc00026cee0" class="node">
<title>Node_0xc00026cee0</title>
<path fill="white" stroke="black" d="M246.25,-230.75C246.25,-230.75 337.5,-230.75 337.5,-230.75 343.5,-230.75 349.5,-236.75 349.5,-242.75 349.5,-242.75 349.5,-276.5 349.5,-276.5 349.5,-282.5 343.5,-288.5 337.5,-288.5 337.5,-288.5 246.25,-288.5 246.25,-288.5 240.25,-288.5 234.25,-282.5 234.25,-276.5 234.25,-276.5 234.25,-242.75 234.25,-242.75 234.25,-236.75 240.25,-230.75 246.25,-230.75"/>
<text text-anchor="middle" x="276" y="-275" font-family="Times,serif" font-size="10.00">&gt;= true(%4, %5)</text>
<polyline fill="none" stroke="black" points="317.75,-269.25 317.75,-288.5"/>
<text text-anchor="middle" x="333.62" y="-275" font-family="Times,serif" font-size="10.00">0x6</text>
<polyline fill="none" stroke="black" points="234.25,-269.25 349.5,-269.25"/>
<text text-anchor="middle" x="258.62" y="-255.75" font-family="Times,serif" font-size="10.00">Op</text>
<polyline fill="none" stroke="black" points="283,-250 283,-269.25"/>
<text text-anchor="middle" x="316" y="-255.75" font-family="Times,serif" font-size="10.00">&gt;= true</text>
<polyline fill="none" stroke="black" points="234.25,-250 349.5,-250"/>
<text text-anchor="middle" x="262.62" y="-236.5" font-family="Times,serif" font-size="10.00">Shape</text>
<polyline fill="none" stroke="black" points="291,-230.75 291,-250"/>
<text text-anchor="middle" x="320.12" y="-236.5" font-family="Times,serif" font-size="10.00">(1, 32)</text>
</g>
<!-- Node_0xc00026ce00 -->
<g id="0xc00026ce00" class="node">
<title>Node_0xc00026ce00</title>
<path fill="white" stroke="black" d="M258.75,-154C258.75,-154 347,-154 347,-154 353,-154 359,-160 359,-166 359,-166 359,-199.75 359,-199.75 359,-205.75 353,-211.75 347,-211.75 347,-211.75 258.75,-211.75 258.75,-211.75 252.75,-211.75 246.75,-205.75 246.75,-199.75 246.75,-199.75 246.75,-166 246.75,-166 246.75,-160 252.75,-154 258.75,-154"/>
<text text-anchor="middle" x="287" y="-198.25" font-family="Times,serif" font-size="10.00">+ false(%3, %2)</text>
<polyline fill="none" stroke="black" points="327.25,-192.5 327.25,-211.75"/>
<text text-anchor="middle" x="343.12" y="-198.25" font-family="Times,serif" font-size="10.00">0x4</text>
<polyline fill="none" stroke="black" points="246.75,-192.5 359,-192.5"/>
<text text-anchor="middle" x="271.12" y="-179" font-family="Times,serif" font-size="10.00">Op</text>
<polyline fill="none" stroke="black" points="295.5,-173.25 295.5,-192.5"/>
<text text-anchor="middle" x="327" y="-179" font-family="Times,serif" font-size="10.00">+ false</text>
<polyline fill="none" stroke="black" points="246.75,-173.25 359,-173.25"/>
<text text-anchor="middle" x="274.12" y="-159.75" font-family="Times,serif" font-size="10.00">Shape</text>
<polyline fill="none" stroke="black" points="301.5,-154 301.5,-173.25"/>
<text text-anchor="middle" x="330.12" y="-159.75" font-family="Times,serif" font-size="10.00">(1, 32)</text>
</g>
<!-- Node_0xc00026cee0&#45;&gt;Node_0xc00026ce00 -->
<g id="edge5" class="edge">
<title>Node_0xc00026cee0&#45;&gt;Node_0xc00026ce00</title>
<path fill="none" stroke="black" d="M296.03,-230.37C296.36,-228.13 296.7,-225.85 297.03,-223.56"/>
<polygon fill="black" stroke="black" points="300.5,-224.08 298.49,-213.67 293.57,-223.06 300.5,-224.08"/>
</g>
<!-- Node_0xc00026cee0&#45;&gt;Node_0xc00026cfc0 -->
<g id="edge6" class="edge">
<title>Node_0xc00026cee0&#45;&gt;Node_0xc00026cfc0</title>
<path fill="none" stroke="black" d="M239.17,-230.34C230.4,-224.79 221.64,-218.68 213.88,-212.25 148.26,-157.95 146.97,-129.1 86.88,-68.75 86.03,-67.9 85.17,-67.04 84.29,-66.19"/>
<polygon fill="black" stroke="black" points="86.94,-63.88 77.29,-59.51 82.11,-68.95 86.94,-63.88"/>
</g>
<!-- Node_0xc00026cd20 -->
<g id="0xc00026cd20" class="node">
<title>Node_0xc00026cd20</title>
<path fill="white" stroke="black" d="M238.25,-77.25C238.25,-77.25 323.5,-77.25 323.5,-77.25 329.5,-77.25 335.5,-83.25 335.5,-89.25 335.5,-89.25 335.5,-123 335.5,-123 335.5,-129 329.5,-135 323.5,-135 323.5,-135 238.25,-135 238.25,-135 232.25,-135 226.25,-129 226.25,-123 226.25,-123 226.25,-89.25 226.25,-89.25 226.25,-83.25 232.25,-77.25 238.25,-77.25"/>
<text text-anchor="middle" x="265" y="-121.5" font-family="Times,serif" font-size="10.00">A × B(%0, %1)</text>
<polyline fill="none" stroke="black" points="303.75,-115.75 303.75,-135"/>
<text text-anchor="middle" x="319.62" y="-121.5" font-family="Times,serif" font-size="10.00">0x3</text>
<polyline fill="none" stroke="black" points="226.25,-115.75 335.5,-115.75"/>
<text text-anchor="middle" x="250.62" y="-102.25" font-family="Times,serif" font-size="10.00">Op</text>
<polyline fill="none" stroke="black" points="275,-96.5 275,-115.75"/>
<text text-anchor="middle" x="305" y="-102.25" font-family="Times,serif" font-size="10.00">A × B</text>
<polyline fill="none" stroke="black" points="226.25,-96.5 335.5,-96.5"/>
<text text-anchor="middle" x="253.12" y="-83" font-family="Times,serif" font-size="10.00">Shape</text>
<polyline fill="none" stroke="black" points="280,-77.25 280,-96.5"/>
<text text-anchor="middle" x="307.62" y="-83" font-family="Times,serif" font-size="10.00">(1, 32)</text>
</g>
<!-- Node_0xc00026ca80 -->
<g id="0xc00026ca80" class="node">
<title>Node_0xc00026ca80</title>
<path fill="yellow" stroke="black" d="M117.38,-0.5C117.38,-0.5 182.38,-0.5 182.38,-0.5 188.38,-0.5 194.38,-6.5 194.38,-12.5 194.38,-12.5 194.38,-46.25 194.38,-46.25 194.38,-52.25 188.38,-58.25 182.38,-58.25 182.38,-58.25 117.38,-58.25 117.38,-58.25 111.38,-58.25 105.38,-52.25 105.38,-46.25 105.38,-46.25 105.38,-12.5 105.38,-12.5 105.38,-6.5 111.38,-0.5 117.38,-0.5"/>
<text text-anchor="middle" x="128.75" y="-44.75" font-family="Times,serif" font-size="10.00">input</text>
<polyline fill="none" stroke="black" points="152.12,-39 152.12,-58.25"/>
<text text-anchor="middle" x="173" y="-44.75" font-family="Times,serif" font-size="10.00">0x0</text>
<polyline fill="none" stroke="black" points="105.38,-39 194.38,-39"/>
<text text-anchor="middle" x="119.75" y="-25.5" font-family="Times,serif" font-size="10.00">Op</text>
<polyline fill="none" stroke="black" points="134.12,-19.75 134.12,-39"/>
<text text-anchor="middle" x="164.25" y="-25.5" font-family="Times,serif" font-size="10.00">%!s(&lt;nil&gt;)</text>
<polyline fill="none" stroke="black" points="105.38,-19.75 194.38,-19.75"/>
<text text-anchor="middle" x="127.25" y="-6.25" font-family="Times,serif" font-size="10.00">Shape</text>
<polyline fill="none" stroke="black" points="149.12,-0.5 149.12,-19.75"/>
<text text-anchor="middle" x="171.75" y="-6.25" font-family="Times,serif" font-size="10.00">(1, 37)</text>
</g>
<!-- Node_0xc00026cd20&#45;&gt;Node_0xc00026ca80 -->
<g id="edge1" class="edge">
<title>Node_0xc00026cd20&#45;&gt;Node_0xc00026ca80</title>
<path fill="none" stroke="black" d="M231.35,-76.87C222.61,-71.88 213.47,-66.66 204.6,-61.6"/>
<polygon fill="black" stroke="black" points="206.47,-58.64 196.05,-56.72 203,-64.72 206.47,-58.64"/>
</g>
<!-- Node_0xc00026cb60 -->
<g id="0xc00026cb60" class="node">
<title>Node_0xc00026cb60</title>
<path fill="yellow" stroke="black" d="M224.38,-0.5C224.38,-0.5 289.38,-0.5 289.38,-0.5 295.38,-0.5 301.38,-6.5 301.38,-12.5 301.38,-12.5 301.38,-46.25 301.38,-46.25 301.38,-52.25 295.38,-58.25 289.38,-58.25 289.38,-58.25 224.38,-58.25 224.38,-58.25 218.38,-58.25 212.38,-52.25 212.38,-46.25 212.38,-46.25 212.38,-12.5 212.38,-12.5 212.38,-6.5 218.38,-0.5 224.38,-0.5"/>
<text text-anchor="middle" x="234.38" y="-44.75" font-family="Times,serif" font-size="10.00">W0</text>
<polyline fill="none" stroke="black" points="256.38,-39 256.38,-58.25"/>
<text text-anchor="middle" x="278.75" y="-44.75" font-family="Times,serif" font-size="10.00">0x1</text>
<polyline fill="none" stroke="black" points="212.38,-39 301.38,-39"/>
<text text-anchor="middle" x="226.75" y="-25.5" font-family="Times,serif" font-size="10.00">Op</text>
<polyline fill="none" stroke="black" points="241.12,-19.75 241.12,-39"/>
<text text-anchor="middle" x="271.25" y="-25.5" font-family="Times,serif" font-size="10.00">%!s(&lt;nil&gt;)</text>
<polyline fill="none" stroke="black" points="212.38,-19.75 301.38,-19.75"/>
<text text-anchor="middle" x="232.75" y="-6.25" font-family="Times,serif" font-size="10.00">Shape</text>
<polyline fill="none" stroke="black" points="253.12,-0.5 253.12,-19.75"/>
<text text-anchor="middle" x="276.88" y="-6.25" font-family="Times,serif" font-size="10.00">(37, 32)</text>
</g>
<!-- Node_0xc00026cd20&#45;&gt;Node_0xc00026cb60 -->
<g id="edge2" class="edge">
<title>Node_0xc00026cd20&#45;&gt;Node_0xc00026cb60</title>
<path fill="none" stroke="black" d="M271.8,-76.87C271.03,-74.45 270.23,-71.97 269.43,-69.49"/>
<polygon fill="black" stroke="black" points="272.81,-68.57 266.42,-60.12 266.15,-70.71 272.81,-68.57"/>
</g>
<!-- Node_0xc00026ce00&#45;&gt;Node_0xc00026cd20 -->
<g id="edge4" class="edge">
<title>Node_0xc00026ce00&#45;&gt;Node_0xc00026cd20</title>
<path fill="none" stroke="black" d="M294.56,-153.62C293.85,-151.2 293.12,-148.72 292.39,-146.24"/>
<polygon fill="black" stroke="black" points="295.81,-145.48 289.63,-136.88 289.1,-147.46 295.81,-145.48"/>
</g>
<!-- Node_0xc00026cc40 -->
<g id="0xc00026cc40" class="node">
<title>Node_0xc00026cc40</title>
<path fill="yellow" stroke="black" d="M331.38,-0.5C331.38,-0.5 396.38,-0.5 396.38,-0.5 402.38,-0.5 408.38,-6.5 408.38,-12.5 408.38,-12.5 408.38,-46.25 408.38,-46.25 408.38,-52.25 402.38,-58.25 396.38,-58.25 396.38,-58.25 331.38,-58.25 331.38,-58.25 325.38,-58.25 319.38,-52.25 319.38,-46.25 319.38,-46.25 319.38,-12.5 319.38,-12.5 319.38,-6.5 325.38,-0.5 331.38,-0.5"/>
<text text-anchor="middle" x="340.38" y="-44.75" font-family="Times,serif" font-size="10.00">B0</text>
<polyline fill="none" stroke="black" points="361.38,-39 361.38,-58.25"/>
<text text-anchor="middle" x="384.75" y="-44.75" font-family="Times,serif" font-size="10.00">0x2</text>
<polyline fill="none" stroke="black" points="319.38,-39 408.38,-39"/>
<text text-anchor="middle" x="333.75" y="-25.5" font-family="Times,serif" font-size="10.00">Op</text>
<polyline fill="none" stroke="black" points="348.12,-19.75 348.12,-39"/>
<text text-anchor="middle" x="378.25" y="-25.5" font-family="Times,serif" font-size="10.00">%!s(&lt;nil&gt;)</text>
<polyline fill="none" stroke="black" points="319.38,-19.75 408.38,-19.75"/>
<text text-anchor="middle" x="341.25" y="-6.25" font-family="Times,serif" font-size="10.00">Shape</text>
<polyline fill="none" stroke="black" points="363.12,-0.5 363.12,-19.75"/>
<text text-anchor="middle" x="385.75" y="-6.25" font-family="Times,serif" font-size="10.00">(1, 32)</text>
</g>
<!-- Node_0xc00026ce00&#45;&gt;Node_0xc00026cc40 -->
<g id="edge3" class="edge">
<title>Node_0xc00026ce00&#45;&gt;Node_0xc00026cc40</title>
<path fill="none" stroke="black" d="M332.92,-153.53C337.51,-147.94 341.76,-141.83 344.88,-135.5 354.87,-115.19 359.65,-90.35 361.92,-69.92"/>
<polygon fill="black" stroke="black" points="365.41,-70.25 362.85,-59.97 358.44,-69.61 365.41,-70.25"/>
</g>
<!-- Node_0xc00026d0a0 -->
<g id="0xc00026d0a0" class="node">
<title>Node_0xc00026d0a0</title>
<path fill="white" stroke="black" d="M266.25,-330C266.25,-330 357.5,-330 357.5,-330 363.5,-330 369.5,-336 369.5,-342 369.5,-342 369.5,-383.25 369.5,-383.25 369.5,-389.25 363.5,-395.25 357.5,-395.25 357.5,-395.25 266.25,-395.25 266.25,-395.25 260.25,-395.25 254.25,-389.25 254.25,-383.25 254.25,-383.25 254.25,-342 254.25,-342 254.25,-336 260.25,-330 266.25,-330"/>
<text text-anchor="middle" x="296" y="-381.75" font-family="Times,serif" font-size="10.00">⊙ false(%4, %6)</text>
<polyline fill="none" stroke="black" points="337.75,-372.25 337.75,-395.25"/>
<text text-anchor="middle" x="353.62" y="-379.88" font-family="Times,serif" font-size="10.00">0x7</text>
<polyline fill="none" stroke="black" points="254.25,-372.25 369.5,-372.25"/>
<text text-anchor="middle" x="278.62" y="-356.88" font-family="Times,serif" font-size="10.00">Op</text>
<polyline fill="none" stroke="black" points="303,-349.25 303,-372.25"/>
<text text-anchor="middle" x="336" y="-358.75" font-family="Times,serif" font-size="10.00">⊙ false</text>
<polyline fill="none" stroke="black" points="254.25,-349.25 369.5,-349.25"/>
<text text-anchor="middle" x="282.62" y="-335.75" font-family="Times,serif" font-size="10.00">Shape</text>
<polyline fill="none" stroke="black" points="311,-330 311,-349.25"/>
<text text-anchor="middle" x="340.12" y="-335.75" font-family="Times,serif" font-size="10.00">(1, 32)</text>
</g>
<!-- Node_0xc00026d0a0&#45;&gt;Node_0xc00026cee0 -->
<g id="edge8" class="edge">
<title>Node_0xc00026d0a0&#45;&gt;Node_0xc00026cee0</title>
<path fill="none" stroke="black" d="M305.55,-329.67C303.69,-320.28 301.63,-309.9 299.69,-300.1"/>
<polygon fill="black" stroke="black" points="303.16,-299.57 297.78,-290.45 296.29,-300.93 303.16,-299.57"/>
</g>
<!-- Node_0xc00026d0a0&#45;&gt;Node_0xc00026ce00 -->
<g id="edge7" class="edge">
<title>Node_0xc00026d0a0&#45;&gt;Node_0xc00026ce00</title>
<path fill="none" stroke="black" d="M357,-329.52C358.88,-326.99 360.53,-324.31 361.88,-321.5 380.95,-281.73 382.91,-261.02 361.88,-222.25 361.69,-221.91 361.5,-221.57 361.3,-221.23"/>
<polygon fill="black" stroke="black" points="364.24,-219.31 355.46,-213.38 358.62,-223.49 364.24,-219.31"/>
</g>
<!-- Node_0xc00026d340 -->
<g id="0xc00026d340" class="node">
<title>Node_0xc00026d340</title>
<path fill="white" stroke="black" d="M271.62,-414.25C271.62,-414.25 356.12,-414.25 356.12,-414.25 362.12,-414.25 368.12,-420.25 368.12,-426.25 368.12,-426.25 368.12,-460 368.12,-460 368.12,-466 362.12,-472 356.12,-472 356.12,-472 271.62,-472 271.62,-472 265.62,-472 259.62,-466 259.62,-460 259.62,-460 259.62,-426.25 259.62,-426.25 259.62,-420.25 265.62,-414.25 271.62,-414.25"/>
<text text-anchor="middle" x="298.38" y="-458.5" font-family="Times,serif" font-size="10.00">A × B(%7, %8)</text>
<polyline fill="none" stroke="black" points="337.12,-452.75 337.12,-472"/>
<text text-anchor="middle" x="352.62" y="-458.5" font-family="Times,serif" font-size="10.00">0xa</text>
<polyline fill="none" stroke="black" points="259.62,-452.75 368.12,-452.75"/>
<text text-anchor="middle" x="283.5" y="-439.25" font-family="Times,serif" font-size="10.00">Op</text>
<polyline fill="none" stroke="black" points="307.38,-433.5 307.38,-452.75"/>
<text text-anchor="middle" x="337.38" y="-439.25" font-family="Times,serif" font-size="10.00">A × B</text>
<polyline fill="none" stroke="black" points="259.62,-433.5 368.12,-433.5"/>
<text text-anchor="middle" x="286" y="-420" font-family="Times,serif" font-size="10.00">Shape</text>
<polyline fill="none" stroke="black" points="312.38,-414.25 312.38,-433.5"/>
<text text-anchor="middle" x="340" y="-420" font-family="Times,serif" font-size="10.00">(1, 32)</text>
</g>
<!-- Node_0xc00026d340&#45;&gt;Node_0xc00026d0a0 -->
<g id="edge9" class="edge">
<title>Node_0xc00026d340&#45;&gt;Node_0xc00026d0a0</title>
<path fill="none" stroke="black" d="M313.15,-413.78C313.1,-411.58 313.04,-409.32 312.98,-407.05"/>
<polygon fill="black" stroke="black" points="316.48,-407.07 312.73,-397.17 309.49,-407.25 316.48,-407.07"/>
</g>
<!-- Node_0xc00026d180 -->
<g id="0xc00026d180" class="node">
<title>Node_0xc00026d180</title>
<path fill="yellow" stroke="black" d="M438.38,-0.5C438.38,-0.5 503.38,-0.5 503.38,-0.5 509.38,-0.5 515.38,-6.5 515.38,-12.5 515.38,-12.5 515.38,-46.25 515.38,-46.25 515.38,-52.25 509.38,-58.25 503.38,-58.25 503.38,-58.25 438.38,-58.25 438.38,-58.25 432.38,-58.25 426.38,-52.25 426.38,-46.25 426.38,-46.25 426.38,-12.5 426.38,-12.5 426.38,-6.5 432.38,-0.5 438.38,-0.5"/>
<text text-anchor="middle" x="448.38" y="-44.75" font-family="Times,serif" font-size="10.00">W1</text>
<polyline fill="none" stroke="black" points="470.38,-39 470.38,-58.25"/>
<text text-anchor="middle" x="492.75" y="-44.75" font-family="Times,serif" font-size="10.00">0x8</text>
<polyline fill="none" stroke="black" points="426.38,-39 515.38,-39"/>
<text text-anchor="middle" x="440.75" y="-25.5" font-family="Times,serif" font-size="10.00">Op</text>
<polyline fill="none" stroke="black" points="455.12,-19.75 455.12,-39"/>
<text text-anchor="middle" x="485.25" y="-25.5" font-family="Times,serif" font-size="10.00">%!s(&lt;nil&gt;)</text>
<polyline fill="none" stroke="black" points="426.38,-19.75 515.38,-19.75"/>
<text text-anchor="middle" x="446.75" y="-6.25" font-family="Times,serif" font-size="10.00">Shape</text>
<polyline fill="none" stroke="black" points="467.12,-0.5 467.12,-19.75"/>
<text text-anchor="middle" x="490.88" y="-6.25" font-family="Times,serif" font-size="10.00">(32, 32)</text>
</g>
<!-- Node_0xc00026d340&#45;&gt;Node_0xc00026d180 -->
<g id="edge10" class="edge">
<title>Node_0xc00026d340&#45;&gt;Node_0xc00026d180</title>
<path fill="none" stroke="black" d="M361.83,-413.98C408,-382.87 470.88,-328.12 470.88,-260.62 470.88,-260.62 470.88,-260.62 470.88,-181.88 470.88,-143.91 470.88,-100.59 470.88,-70.03"/>
<polygon fill="black" stroke="black" points="474.38,-70.09 470.88,-60.09 467.38,-70.09 474.38,-70.09"/>
</g>
<!-- Node_0xc00026d420&#45;&gt;Node_0xc00026d340 -->
<g id="edge12" class="edge">
<title>Node_0xc00026d420&#45;&gt;Node_0xc00026d340</title>
<path fill="none" stroke="black" d="M313.88,-490.62C313.88,-488.38 313.88,-486.1 313.88,-483.81"/>
<polygon fill="black" stroke="black" points="317.38,-483.94 313.88,-473.94 310.38,-483.94 317.38,-483.94"/>
</g>
<!-- Node_0xc00026d260 -->
<g id="0xc00026d260" class="node">
<title>Node_0xc00026d260</title>
<path fill="yellow" stroke="black" d="M545.38,-0.5C545.38,-0.5 610.38,-0.5 610.38,-0.5 616.38,-0.5 622.38,-6.5 622.38,-12.5 622.38,-12.5 622.38,-46.25 622.38,-46.25 622.38,-52.25 616.38,-58.25 610.38,-58.25 610.38,-58.25 545.38,-58.25 545.38,-58.25 539.38,-58.25 533.38,-52.25 533.38,-46.25 533.38,-46.25 533.38,-12.5 533.38,-12.5 533.38,-6.5 539.38,-0.5 545.38,-0.5"/>
<text text-anchor="middle" x="554.38" y="-44.75" font-family="Times,serif" font-size="10.00">B1</text>
<polyline fill="none" stroke="black" points="575.38,-39 575.38,-58.25"/>
<text text-anchor="middle" x="598.75" y="-44.75" font-family="Times,serif" font-size="10.00">0x9</text>
<polyline fill="none" stroke="black" points="533.38,-39 622.38,-39"/>
<text text-anchor="middle" x="547.75" y="-25.5" font-family="Times,serif" font-size="10.00">Op</text>
<polyline fill="none" stroke="black" points="562.12,-19.75 562.12,-39"/>
<text text-anchor="middle" x="592.25" y="-25.5" font-family="Times,serif" font-size="10.00">%!s(&lt;nil&gt;)</text>
<polyline fill="none" stroke="black" points="533.38,-19.75 622.38,-19.75"/>
<text text-anchor="middle" x="555.25" y="-6.25" font-family="Times,serif" font-size="10.00">Shape</text>
<polyline fill="none" stroke="black" points="577.12,-0.5 577.12,-19.75"/>
<text text-anchor="middle" x="599.75" y="-6.25" font-family="Times,serif" font-size="10.00">(1, 32)</text>
</g>
<!-- Node_0xc00026d420&#45;&gt;Node_0xc00026d260 -->
<g id="edge11" class="edge">
<title>Node_0xc00026d420&#45;&gt;Node_0xc00026d260</title>
<path fill="none" stroke="black" d="M369.86,-511.26C447.36,-497.2 577.88,-459.33 577.88,-363.62 577.88,-363.62 577.88,-363.62 577.88,-181.88 577.88,-143.91 577.88,-100.59 577.88,-70.03"/>
<polygon fill="black" stroke="black" points="581.38,-70.09 577.88,-60.09 574.38,-70.09 581.38,-70.09"/>
</g>
<!-- Node_0xc00026d5e0 -->
<g id="0xc00026d5e0" class="node">
<title>Node_0xc00026d5e0</title>
<path fill="white" stroke="black" d="M266.62,-667C266.62,-667 357.12,-667 357.12,-667 363.12,-667 369.12,-673 369.12,-679 369.12,-679 369.12,-720.25 369.12,-720.25 369.12,-726.25 363.12,-732.25 357.12,-732.25 357.12,-732.25 266.62,-732.25 266.62,-732.25 260.62,-732.25 254.62,-726.25 254.62,-720.25 254.62,-720.25 254.62,-679 254.62,-679 254.62,-673 260.62,-667 266.62,-667"/>
<text text-anchor="middle" x="296" y="-718.75" font-family="Times,serif" font-size="10.00">⊙ false(%b, %c)</text>
<polyline fill="none" stroke="black" points="337.38,-709.25 337.38,-732.25"/>
<text text-anchor="middle" x="353.25" y="-716.88" font-family="Times,serif" font-size="10.00">0xd</text>
<polyline fill="none" stroke="black" points="254.62,-709.25 369.12,-709.25"/>
<text text-anchor="middle" x="278.5" y="-693.88" font-family="Times,serif" font-size="10.00">Op</text>
<polyline fill="none" stroke="black" points="302.38,-686.25 302.38,-709.25"/>
<text text-anchor="middle" x="335.38" y="-695.75" font-family="Times,serif" font-size="10.00">⊙ false</text>
<polyline fill="none" stroke="black" points="254.62,-686.25 369.12,-686.25"/>
<text text-anchor="middle" x="282.5" y="-672.75" font-family="Times,serif" font-size="10.00">Shape</text>
<polyline fill="none" stroke="black" points="310.38,-667 310.38,-686.25"/>
<text text-anchor="middle" x="339.5" y="-672.75" font-family="Times,serif" font-size="10.00">(1, 32)</text>
</g>
<!-- Node_0xc00026d5e0&#45;&gt;Node_0xc00026d500 -->
<g id="edge16" class="edge">
<title>Node_0xc00026d5e0&#45;&gt;Node_0xc00026d500</title>
<path fill="none" stroke="black" d="M305.23,-666.67C303.28,-657.28 301.12,-646.9 299.08,-637.1"/>
<polygon fill="black" stroke="black" points="302.54,-636.52 297.07,-627.44 295.68,-637.95 302.54,-636.52"/>
</g>
<!-- Node_0xc00026d5e0&#45;&gt;Node_0xc00026d420 -->
<g id="edge15" class="edge">
<title>Node_0xc00026d5e0&#45;&gt;Node_0xc00026d420</title>
<path fill="none" stroke="black" d="M355.02,-666.66C356.89,-664.08 358.54,-661.35 359.88,-658.5 378.55,-618.54 378.57,-599.2 359.88,-559.25 359.77,-559.03 359.66,-558.8 359.55,-558.58"/>
<polygon fill="black" stroke="black" points="362.67,-556.96 354.31,-550.45 356.79,-560.75 362.67,-556.96"/>
</g>
<!-- Node_0xc00026d880 -->
<g id="0xc00026d880" class="node">
<title>Node_0xc00026d880</title>
<path fill="white" stroke="black" d="M267,-751.25C267,-751.25 356.75,-751.25 356.75,-751.25 362.75,-751.25 368.75,-757.25 368.75,-763.25 368.75,-763.25 368.75,-797 368.75,-797 368.75,-803 362.75,-809 356.75,-809 356.75,-809 267,-809 267,-809 261,-809 255,-803 255,-797 255,-797 255,-763.25 255,-763.25 255,-757.25 261,-751.25 267,-751.25"/>
<text text-anchor="middle" x="293.38" y="-795.5" font-family="Times,serif" font-size="10.00">A × B(%d, %e)</text>
<polyline fill="none" stroke="black" points="331.75,-789.75 331.75,-809"/>
<text text-anchor="middle" x="350.25" y="-795.5" font-family="Times,serif" font-size="10.00">0x10</text>
<polyline fill="none" stroke="black" points="255,-789.75 368.75,-789.75"/>
<text text-anchor="middle" x="280.38" y="-776.25" font-family="Times,serif" font-size="10.00">Op</text>
<polyline fill="none" stroke="black" points="305.75,-770.5 305.75,-789.75"/>
<text text-anchor="middle" x="337.25" y="-776.25" font-family="Times,serif" font-size="10.00">A × B</text>
<polyline fill="none" stroke="black" points="255,-770.5 368.75,-770.5"/>
<text text-anchor="middle" x="282.88" y="-757" font-family="Times,serif" font-size="10.00">Shape</text>
<polyline fill="none" stroke="black" points="310.75,-751.25 310.75,-770.5"/>
<text text-anchor="middle" x="339.38" y="-757" font-family="Times,serif" font-size="10.00">(1, 14)</text>
</g>
<!-- Node_0xc00026d880&#45;&gt;Node_0xc00026d5e0 -->
<g id="edge17" class="edge">
<title>Node_0xc00026d880&#45;&gt;Node_0xc00026d5e0</title>
<path fill="none" stroke="black" d="M311.88,-750.78C311.88,-748.58 311.88,-746.32 311.88,-744.05"/>
<polygon fill="black" stroke="black" points="315.38,-744.17 311.88,-734.17 308.38,-744.17 315.38,-744.17"/>
</g>
<!-- Node_0xc00026d6c0 -->
<g id="0xc00026d6c0" class="node">
<title>Node_0xc00026d6c0</title>
<path fill="yellow" stroke="black" d="M652.38,-0.5C652.38,-0.5 717.38,-0.5 717.38,-0.5 723.38,-0.5 729.38,-6.5 729.38,-12.5 729.38,-12.5 729.38,-46.25 729.38,-46.25 729.38,-52.25 723.38,-58.25 717.38,-58.25 717.38,-58.25 652.38,-58.25 652.38,-58.25 646.38,-58.25 640.38,-52.25 640.38,-46.25 640.38,-46.25 640.38,-12.5 640.38,-12.5 640.38,-6.5 646.38,-0.5 652.38,-0.5"/>
<text text-anchor="middle" x="662.38" y="-44.75" font-family="Times,serif" font-size="10.00">W2</text>
<polyline fill="none" stroke="black" points="684.38,-39 684.38,-58.25"/>
<text text-anchor="middle" x="706.88" y="-44.75" font-family="Times,serif" font-size="10.00">0xe</text>
<polyline fill="none" stroke="black" points="640.38,-39 729.38,-39"/>
<text text-anchor="middle" x="654.75" y="-25.5" font-family="Times,serif" font-size="10.00">Op</text>
<polyline fill="none" stroke="black" points="669.12,-19.75 669.12,-39"/>
<text text-anchor="middle" x="699.25" y="-25.5" font-family="Times,serif" font-size="10.00">%!s(&lt;nil&gt;)</text>
<polyline fill="none" stroke="black" points="640.38,-19.75 729.38,-19.75"/>
<text text-anchor="middle" x="660.75" y="-6.25" font-family="Times,serif" font-size="10.00">Shape</text>
<polyline fill="none" stroke="black" points="681.12,-0.5 681.12,-19.75"/>
<text text-anchor="middle" x="704.88" y="-6.25" font-family="Times,serif" font-size="10.00">(32, 14)</text>
</g>
<!-- Node_0xc00026d880&#45;&gt;Node_0xc00026d6c0 -->
<g id="edge18" class="edge">
<title>Node_0xc00026d880&#45;&gt;Node_0xc00026d6c0</title>
<path fill="none" stroke="black" d="M368.93,-776.78C473.42,-769.11 684.88,-736.44 684.88,-597.62 684.88,-597.62 684.88,-597.62 684.88,-181.88 684.88,-143.91 684.88,-100.59 684.88,-70.03"/>
<polygon fill="black" stroke="black" points="688.38,-70.09 684.88,-60.09 681.38,-70.09 688.38,-70.09"/>
</g>
<!-- Node_0xc00026d960 -->
<g id="0xc00026d960" class="node">
<title>Node_0xc00026d960</title>
<path fill="white" stroke="black" d="M262.38,-828C262.38,-828 357.38,-828 357.38,-828 363.38,-828 369.38,-834 369.38,-840 369.38,-840 369.38,-873.75 369.38,-873.75 369.38,-879.75 363.38,-885.75 357.38,-885.75 357.38,-885.75 262.38,-885.75 262.38,-885.75 256.38,-885.75 250.38,-879.75 250.38,-873.75 250.38,-873.75 250.38,-840 250.38,-840 250.38,-834 256.38,-828 262.38,-828"/>
<text text-anchor="middle" x="292.12" y="-872.25" font-family="Times,serif" font-size="10.00">+ false(%10, %f)</text>
<polyline fill="none" stroke="black" points="333.88,-866.5 333.88,-885.75"/>
<text text-anchor="middle" x="351.62" y="-872.25" font-family="Times,serif" font-size="10.00">0x11</text>
<polyline fill="none" stroke="black" points="250.38,-866.5 369.38,-866.5"/>
<text text-anchor="middle" x="276.25" y="-853" font-family="Times,serif" font-size="10.00">Op</text>
<polyline fill="none" stroke="black" points="302.12,-847.25 302.12,-866.5"/>
<text text-anchor="middle" x="335.62" y="-853" font-family="Times,serif" font-size="10.00">+ false</text>
<polyline fill="none" stroke="black" points="250.38,-847.25 369.38,-847.25"/>
<text text-anchor="middle" x="279.75" y="-833.75" font-family="Times,serif" font-size="10.00">Shape</text>
<polyline fill="none" stroke="black" points="309.12,-828 309.12,-847.25"/>
<text text-anchor="middle" x="339.25" y="-833.75" font-family="Times,serif" font-size="10.00">(1, 14)</text>
</g>
<!-- Node_0xc00026d960&#45;&gt;Node_0xc00026d880 -->
<g id="edge20" class="edge">
<title>Node_0xc00026d960&#45;&gt;Node_0xc00026d880</title>
<path fill="none" stroke="black" d="M310.63,-827.62C310.69,-825.38 310.75,-823.1 310.81,-820.81"/>
<polygon fill="black" stroke="black" points="314.31,-821.03 311.08,-810.94 307.31,-820.84 314.31,-821.03"/>
</g>
<!-- Node_0xc00026d7a0 -->
<g id="0xc00026d7a0" class="node">
<title>Node_0xc00026d7a0</title>
<path fill="yellow" stroke="black" d="M759.38,-0.5C759.38,-0.5 824.38,-0.5 824.38,-0.5 830.38,-0.5 836.38,-6.5 836.38,-12.5 836.38,-12.5 836.38,-46.25 836.38,-46.25 836.38,-52.25 830.38,-58.25 824.38,-58.25 824.38,-58.25 759.38,-58.25 759.38,-58.25 753.38,-58.25 747.38,-52.25 747.38,-46.25 747.38,-46.25 747.38,-12.5 747.38,-12.5 747.38,-6.5 753.38,-0.5 759.38,-0.5"/>
<text text-anchor="middle" x="768.88" y="-44.75" font-family="Times,serif" font-size="10.00">B2</text>
<polyline fill="none" stroke="black" points="790.38,-39 790.38,-58.25"/>
<text text-anchor="middle" x="813.12" y="-44.75" font-family="Times,serif" font-size="10.00">0xf</text>
<polyline fill="none" stroke="black" points="747.38,-39 836.38,-39"/>
<text text-anchor="middle" x="761.75" y="-25.5" font-family="Times,serif" font-size="10.00">Op</text>
<polyline fill="none" stroke="black" points="776.12,-19.75 776.12,-39"/>
<text text-anchor="middle" x="806.25" y="-25.5" font-family="Times,serif" font-size="10.00">%!s(&lt;nil&gt;)</text>
<polyline fill="none" stroke="black" points="747.38,-19.75 836.38,-19.75"/>
<text text-anchor="middle" x="769.25" y="-6.25" font-family="Times,serif" font-size="10.00">Shape</text>
<polyline fill="none" stroke="black" points="791.12,-0.5 791.12,-19.75"/>
<text text-anchor="middle" x="813.75" y="-6.25" font-family="Times,serif" font-size="10.00">(1, 14)</text>
</g>
<!-- Node_0xc00026d960&#45;&gt;Node_0xc00026d7a0 -->
<g id="edge19" class="edge">
<title>Node_0xc00026d960&#45;&gt;Node_0xc00026d7a0</title>
<path fill="none" stroke="black" d="M369.46,-849.4C498.42,-833.73 791.88,-788.43 791.88,-700.62 791.88,-700.62 791.88,-700.62 791.88,-181.88 791.88,-143.91 791.88,-100.59 791.88,-70.03"/>
<polygon fill="black" stroke="black" points="795.38,-70.09 791.88,-60.09 788.38,-70.09 795.38,-70.09"/>
</g>
</g>
</svg>
